<mxfile host="app.diagrams.net" agent="Mozilla/5.0 (Windows NT 10.0; Win64; x64) AppleWebKit/537.36 (KHTML, like Gecko) Chrome/139.0.0.0 Safari/537.36" version="28.1.1">
  <diagram name="PÃ¡gina-1" id="5G2kjNnsktbM-zgSGdSU">
    <mxGraphModel dx="2505" dy="2043" grid="1" gridSize="10" guides="1" tooltips="1" connect="1" arrows="1" fold="1" page="1" pageScale="1" pageWidth="827" pageHeight="1169" math="0" shadow="0">
      <root>
        <mxCell id="0" />
        <mxCell id="1" parent="0" />
        <mxCell id="qp_JkodCqPg50iR1KAxC-13" style="edgeStyle=orthogonalEdgeStyle;rounded=0;orthogonalLoop=1;jettySize=auto;html=1;entryX=0;entryY=0.5;entryDx=0;entryDy=0;endArrow=none;endFill=0;" parent="1" source="qp_JkodCqPg50iR1KAxC-1" target="qp_JkodCqPg50iR1KAxC-10" edge="1">
          <mxGeometry relative="1" as="geometry" />
        </mxCell>
        <mxCell id="qp_JkodCqPg50iR1KAxC-33" value="" style="edgeStyle=orthogonalEdgeStyle;rounded=0;orthogonalLoop=1;jettySize=auto;html=1;endArrow=none;endFill=0;" parent="1" source="j4JtsabxoQDrfAaerwHx-1" target="qp_JkodCqPg50iR1KAxC-32" edge="1">
          <mxGeometry relative="1" as="geometry">
            <Array as="points">
              <mxPoint x="210" y="405" />
              <mxPoint x="210" y="405" />
            </Array>
          </mxGeometry>
        </mxCell>
        <mxCell id="qp_JkodCqPg50iR1KAxC-42" style="edgeStyle=orthogonalEdgeStyle;rounded=0;orthogonalLoop=1;jettySize=auto;html=1;endArrow=none;endFill=0;" parent="1" source="qp_JkodCqPg50iR1KAxC-1" target="qp_JkodCqPg50iR1KAxC-35" edge="1">
          <mxGeometry relative="1" as="geometry">
            <Array as="points">
              <mxPoint x="60" y="55" />
            </Array>
          </mxGeometry>
        </mxCell>
        <mxCell id="qp_JkodCqPg50iR1KAxC-44" style="edgeStyle=orthogonalEdgeStyle;rounded=0;orthogonalLoop=1;jettySize=auto;html=1;endArrow=none;endFill=0;" parent="1" source="qp_JkodCqPg50iR1KAxC-1" target="qp_JkodCqPg50iR1KAxC-41" edge="1">
          <mxGeometry relative="1" as="geometry" />
        </mxCell>
        <mxCell id="qp_JkodCqPg50iR1KAxC-60" style="edgeStyle=orthogonalEdgeStyle;rounded=0;orthogonalLoop=1;jettySize=auto;html=1;endArrow=none;endFill=0;" parent="1" source="qp_JkodCqPg50iR1KAxC-1" target="qp_JkodCqPg50iR1KAxC-58" edge="1">
          <mxGeometry relative="1" as="geometry" />
        </mxCell>
        <mxCell id="qp_JkodCqPg50iR1KAxC-1" value="Cliente" style="html=1;whiteSpace=wrap;" parent="1" vertex="1">
          <mxGeometry x="50" y="170" width="110" height="50" as="geometry" />
        </mxCell>
        <mxCell id="qp_JkodCqPg50iR1KAxC-15" style="edgeStyle=orthogonalEdgeStyle;rounded=0;orthogonalLoop=1;jettySize=auto;html=1;entryX=0;entryY=0.5;entryDx=0;entryDy=0;endArrow=none;endFill=0;" parent="1" source="qp_JkodCqPg50iR1KAxC-2" target="qp_JkodCqPg50iR1KAxC-11" edge="1">
          <mxGeometry relative="1" as="geometry" />
        </mxCell>
        <mxCell id="qp_JkodCqPg50iR1KAxC-2" value="&lt;div&gt;Rol&lt;/div&gt;" style="html=1;whiteSpace=wrap;" parent="1" vertex="1">
          <mxGeometry x="301" y="-125" width="110" height="50" as="geometry" />
        </mxCell>
        <mxCell id="qp_JkodCqPg50iR1KAxC-3" value="&lt;div&gt;Permisos&lt;/div&gt;" style="html=1;whiteSpace=wrap;" parent="1" vertex="1">
          <mxGeometry x="621" y="-125" width="110" height="50" as="geometry" />
        </mxCell>
        <mxCell id="qp_JkodCqPg50iR1KAxC-5" value="Tipo documento" style="html=1;whiteSpace=wrap;" parent="1" vertex="1">
          <mxGeometry x="-370" y="30" width="110" height="50" as="geometry" />
        </mxCell>
        <mxCell id="qp_JkodCqPg50iR1KAxC-18" style="edgeStyle=orthogonalEdgeStyle;rounded=0;orthogonalLoop=1;jettySize=auto;html=1;endArrow=none;endFill=0;" parent="1" source="qp_JkodCqPg50iR1KAxC-6" target="qp_JkodCqPg50iR1KAxC-23" edge="1">
          <mxGeometry relative="1" as="geometry">
            <mxPoint x="210" y="380" as="targetPoint" />
          </mxGeometry>
        </mxCell>
        <mxCell id="qp_JkodCqPg50iR1KAxC-62" style="edgeStyle=orthogonalEdgeStyle;rounded=0;orthogonalLoop=1;jettySize=auto;html=1;endArrow=none;endFill=0;" parent="1" source="qp_JkodCqPg50iR1KAxC-6" target="qp_JkodCqPg50iR1KAxC-53" edge="1">
          <mxGeometry relative="1" as="geometry" />
        </mxCell>
        <mxCell id="qp_JkodCqPg50iR1KAxC-6" value="&lt;div&gt;Mascota&lt;/div&gt;" style="html=1;whiteSpace=wrap;" parent="1" vertex="1">
          <mxGeometry x="-325" y="170" width="110" height="50" as="geometry" />
        </mxCell>
        <mxCell id="qp_JkodCqPg50iR1KAxC-28" value="" style="edgeStyle=orthogonalEdgeStyle;rounded=0;orthogonalLoop=1;jettySize=auto;html=1;endArrow=none;endFill=0;" parent="1" source="qp_JkodCqPg50iR1KAxC-8" target="qp_JkodCqPg50iR1KAxC-27" edge="1">
          <mxGeometry relative="1" as="geometry" />
        </mxCell>
        <mxCell id="qp_JkodCqPg50iR1KAxC-8" value="Tratamiento" style="html=1;whiteSpace=wrap;" parent="1" vertex="1">
          <mxGeometry x="50" y="480" width="110" height="50" as="geometry" />
        </mxCell>
        <mxCell id="dpnFt4Pwqag7pacFZpll-47" style="edgeStyle=orthogonalEdgeStyle;rounded=0;orthogonalLoop=1;jettySize=auto;html=1;endArrow=none;endFill=0;" parent="1" source="qp_JkodCqPg50iR1KAxC-9" target="dpnFt4Pwqag7pacFZpll-46" edge="1">
          <mxGeometry relative="1" as="geometry" />
        </mxCell>
        <mxCell id="qp_JkodCqPg50iR1KAxC-9" value="Informacion Medicamento" style="html=1;whiteSpace=wrap;" parent="1" vertex="1">
          <mxGeometry x="460" y="480" width="110" height="50" as="geometry" />
        </mxCell>
        <mxCell id="qp_JkodCqPg50iR1KAxC-14" style="edgeStyle=orthogonalEdgeStyle;rounded=0;orthogonalLoop=1;jettySize=auto;html=1;endArrow=none;endFill=0;" parent="1" source="qp_JkodCqPg50iR1KAxC-10" target="qp_JkodCqPg50iR1KAxC-2" edge="1">
          <mxGeometry relative="1" as="geometry" />
        </mxCell>
        <mxCell id="qp_JkodCqPg50iR1KAxC-10" value="Tiene Asignado" style="shape=rhombus;perimeter=rhombusPerimeter;whiteSpace=wrap;html=1;align=center;" parent="1" vertex="1">
          <mxGeometry x="131" y="-130" width="120" height="60" as="geometry" />
        </mxCell>
        <mxCell id="qp_JkodCqPg50iR1KAxC-16" value="" style="edgeStyle=orthogonalEdgeStyle;rounded=0;orthogonalLoop=1;jettySize=auto;html=1;endArrow=none;endFill=0;" parent="1" source="qp_JkodCqPg50iR1KAxC-11" target="qp_JkodCqPg50iR1KAxC-3" edge="1">
          <mxGeometry relative="1" as="geometry" />
        </mxCell>
        <mxCell id="qp_JkodCqPg50iR1KAxC-11" value="Otorga" style="shape=rhombus;perimeter=rhombusPerimeter;whiteSpace=wrap;html=1;align=center;" parent="1" vertex="1">
          <mxGeometry x="461" y="-130" width="120" height="60" as="geometry" />
        </mxCell>
        <mxCell id="qp_JkodCqPg50iR1KAxC-21" value="" style="edgeStyle=orthogonalEdgeStyle;rounded=0;orthogonalLoop=1;jettySize=auto;html=1;endArrow=none;endFill=0;" parent="1" source="qp_JkodCqPg50iR1KAxC-25" target="qp_JkodCqPg50iR1KAxC-7" edge="1">
          <mxGeometry relative="1" as="geometry">
            <mxPoint x="540" y="400" as="sourcePoint" />
            <mxPoint x="385" y="530" as="targetPoint" />
          </mxGeometry>
        </mxCell>
        <mxCell id="qp_JkodCqPg50iR1KAxC-7" value="Antecedente" style="html=1;whiteSpace=wrap;" parent="1" vertex="1">
          <mxGeometry x="-325" y="480" width="110" height="50" as="geometry" />
        </mxCell>
        <mxCell id="qp_JkodCqPg50iR1KAxC-23" value="Presenta" style="shape=rhombus;perimeter=rhombusPerimeter;whiteSpace=wrap;html=1;align=center;" parent="1" vertex="1">
          <mxGeometry x="-330" y="295" width="120" height="60" as="geometry" />
        </mxCell>
        <mxCell id="qp_JkodCqPg50iR1KAxC-24" style="edgeStyle=orthogonalEdgeStyle;rounded=0;orthogonalLoop=1;jettySize=auto;html=1;endArrow=none;endFill=0;" parent="1" source="qp_JkodCqPg50iR1KAxC-23" target="qp_JkodCqPg50iR1KAxC-7" edge="1">
          <mxGeometry relative="1" as="geometry">
            <mxPoint x="380" y="320" as="sourcePoint" />
            <mxPoint x="330" y="440" as="targetPoint" />
          </mxGeometry>
        </mxCell>
        <mxCell id="qp_JkodCqPg50iR1KAxC-26" value="" style="edgeStyle=orthogonalEdgeStyle;rounded=0;orthogonalLoop=1;jettySize=auto;html=1;endArrow=none;endFill=0;" parent="1" source="qp_JkodCqPg50iR1KAxC-25" target="qp_JkodCqPg50iR1KAxC-8" edge="1">
          <mxGeometry relative="1" as="geometry" />
        </mxCell>
        <mxCell id="qp_JkodCqPg50iR1KAxC-25" value="Contiene" style="shape=rhombus;perimeter=rhombusPerimeter;whiteSpace=wrap;html=1;align=center;" parent="1" vertex="1">
          <mxGeometry x="-150" y="475" width="120" height="60" as="geometry" />
        </mxCell>
        <mxCell id="qp_JkodCqPg50iR1KAxC-29" value="" style="edgeStyle=orthogonalEdgeStyle;rounded=0;orthogonalLoop=1;jettySize=auto;html=1;endArrow=none;endFill=0;" parent="1" source="qp_JkodCqPg50iR1KAxC-27" target="qp_JkodCqPg50iR1KAxC-9" edge="1">
          <mxGeometry relative="1" as="geometry" />
        </mxCell>
        <mxCell id="qp_JkodCqPg50iR1KAxC-27" value="Incluye" style="shape=rhombus;perimeter=rhombusPerimeter;whiteSpace=wrap;html=1;align=center;" parent="1" vertex="1">
          <mxGeometry x="250" y="475" width="120" height="60" as="geometry" />
        </mxCell>
        <mxCell id="qp_JkodCqPg50iR1KAxC-34" style="edgeStyle=orthogonalEdgeStyle;rounded=0;orthogonalLoop=1;jettySize=auto;html=1;endArrow=none;endFill=0;" parent="1" source="qp_JkodCqPg50iR1KAxC-32" target="qp_JkodCqPg50iR1KAxC-8" edge="1">
          <mxGeometry relative="1" as="geometry" />
        </mxCell>
        <mxCell id="qp_JkodCqPg50iR1KAxC-32" value="Actua" style="shape=rhombus;perimeter=rhombusPerimeter;whiteSpace=wrap;html=1;align=center;" parent="1" vertex="1">
          <mxGeometry x="181" y="375" width="120" height="60" as="geometry" />
        </mxCell>
        <mxCell id="qp_JkodCqPg50iR1KAxC-43" value="" style="edgeStyle=orthogonalEdgeStyle;rounded=0;orthogonalLoop=1;jettySize=auto;html=1;endArrow=none;endFill=0;" parent="1" source="qp_JkodCqPg50iR1KAxC-35" target="qp_JkodCqPg50iR1KAxC-5" edge="1">
          <mxGeometry relative="1" as="geometry" />
        </mxCell>
        <mxCell id="qp_JkodCqPg50iR1KAxC-35" value="Se identifica con" style="shape=rhombus;perimeter=rhombusPerimeter;whiteSpace=wrap;html=1;align=center;" parent="1" vertex="1">
          <mxGeometry x="-185" y="25" width="120" height="60" as="geometry" />
        </mxCell>
        <mxCell id="j4JtsabxoQDrfAaerwHx-12" style="edgeStyle=orthogonalEdgeStyle;rounded=0;orthogonalLoop=1;jettySize=auto;html=1;endArrow=none;endFill=0;" edge="1" parent="1" source="qp_JkodCqPg50iR1KAxC-36" target="ASEv6_CXKGMXaSiqvc_h-1">
          <mxGeometry relative="1" as="geometry" />
        </mxCell>
        <mxCell id="qp_JkodCqPg50iR1KAxC-36" value="Venta" style="html=1;whiteSpace=wrap;" parent="1" vertex="1">
          <mxGeometry x="430" y="170" width="110" height="50" as="geometry" />
        </mxCell>
        <mxCell id="qp_JkodCqPg50iR1KAxC-66" style="edgeStyle=orthogonalEdgeStyle;rounded=0;orthogonalLoop=1;jettySize=auto;html=1;endArrow=none;endFill=0;" parent="1" source="qp_JkodCqPg50iR1KAxC-37" target="qp_JkodCqPg50iR1KAxC-65" edge="1">
          <mxGeometry relative="1" as="geometry" />
        </mxCell>
        <mxCell id="j4JtsabxoQDrfAaerwHx-7" style="edgeStyle=orthogonalEdgeStyle;rounded=0;orthogonalLoop=1;jettySize=auto;html=1;endArrow=none;endFill=0;" edge="1" parent="1" source="qp_JkodCqPg50iR1KAxC-37" target="j4JtsabxoQDrfAaerwHx-4">
          <mxGeometry relative="1" as="geometry" />
        </mxCell>
        <mxCell id="qp_JkodCqPg50iR1KAxC-37" value="&lt;div&gt;Producto&lt;/div&gt;" style="html=1;whiteSpace=wrap;" parent="1" vertex="1">
          <mxGeometry x="896" y="25" width="110" height="50" as="geometry" />
        </mxCell>
        <mxCell id="dpnFt4Pwqag7pacFZpll-30" style="edgeStyle=orthogonalEdgeStyle;rounded=0;orthogonalLoop=1;jettySize=auto;html=1;endArrow=none;endFill=0;" parent="1" source="qp_JkodCqPg50iR1KAxC-39" target="j4JtsabxoQDrfAaerwHx-3" edge="1">
          <mxGeometry relative="1" as="geometry" />
        </mxCell>
        <mxCell id="qp_JkodCqPg50iR1KAxC-39" value="Medicamento" style="html=1;whiteSpace=wrap;" parent="1" vertex="1">
          <mxGeometry x="896" y="310" width="110" height="50" as="geometry" />
        </mxCell>
        <mxCell id="qp_JkodCqPg50iR1KAxC-45" style="edgeStyle=orthogonalEdgeStyle;rounded=0;orthogonalLoop=1;jettySize=auto;html=1;endArrow=none;endFill=0;" parent="1" source="qp_JkodCqPg50iR1KAxC-41" target="qp_JkodCqPg50iR1KAxC-36" edge="1">
          <mxGeometry relative="1" as="geometry" />
        </mxCell>
        <mxCell id="qp_JkodCqPg50iR1KAxC-41" value="Solicita" style="shape=rhombus;perimeter=rhombusPerimeter;whiteSpace=wrap;html=1;align=center;" parent="1" vertex="1">
          <mxGeometry x="226" y="165" width="120" height="60" as="geometry" />
        </mxCell>
        <mxCell id="qp_JkodCqPg50iR1KAxC-56" style="edgeStyle=orthogonalEdgeStyle;rounded=0;orthogonalLoop=1;jettySize=auto;html=1;endArrow=none;endFill=0;" parent="1" source="qp_JkodCqPg50iR1KAxC-51" target="qp_JkodCqPg50iR1KAxC-54" edge="1">
          <mxGeometry relative="1" as="geometry" />
        </mxCell>
        <mxCell id="qp_JkodCqPg50iR1KAxC-51" value="Raza" style="html=1;whiteSpace=wrap;" parent="1" vertex="1">
          <mxGeometry x="-660" y="170" width="110" height="50" as="geometry" />
        </mxCell>
        <mxCell id="qp_JkodCqPg50iR1KAxC-52" value="Especie" style="html=1;whiteSpace=wrap;" parent="1" vertex="1">
          <mxGeometry x="-660" y="440" width="110" height="50" as="geometry" />
        </mxCell>
        <mxCell id="qp_JkodCqPg50iR1KAxC-63" style="edgeStyle=orthogonalEdgeStyle;rounded=0;orthogonalLoop=1;jettySize=auto;html=1;endArrow=none;endFill=0;" parent="1" source="qp_JkodCqPg50iR1KAxC-53" target="qp_JkodCqPg50iR1KAxC-51" edge="1">
          <mxGeometry relative="1" as="geometry" />
        </mxCell>
        <mxCell id="qp_JkodCqPg50iR1KAxC-53" value="Pertenece a" style="shape=rhombus;perimeter=rhombusPerimeter;whiteSpace=wrap;html=1;align=center;" parent="1" vertex="1">
          <mxGeometry x="-500" y="165" width="120" height="60" as="geometry" />
        </mxCell>
        <mxCell id="qp_JkodCqPg50iR1KAxC-57" style="edgeStyle=orthogonalEdgeStyle;rounded=0;orthogonalLoop=1;jettySize=auto;html=1;endArrow=none;endFill=0;" parent="1" source="qp_JkodCqPg50iR1KAxC-54" target="qp_JkodCqPg50iR1KAxC-52" edge="1">
          <mxGeometry relative="1" as="geometry" />
        </mxCell>
        <mxCell id="qp_JkodCqPg50iR1KAxC-54" value="Agrupa" style="shape=rhombus;perimeter=rhombusPerimeter;whiteSpace=wrap;html=1;align=center;" parent="1" vertex="1">
          <mxGeometry x="-665" y="295" width="120" height="60" as="geometry" />
        </mxCell>
        <mxCell id="qp_JkodCqPg50iR1KAxC-61" style="edgeStyle=orthogonalEdgeStyle;rounded=0;orthogonalLoop=1;jettySize=auto;html=1;endArrow=none;endFill=0;" parent="1" source="qp_JkodCqPg50iR1KAxC-58" target="qp_JkodCqPg50iR1KAxC-6" edge="1">
          <mxGeometry relative="1" as="geometry" />
        </mxCell>
        <mxCell id="qp_JkodCqPg50iR1KAxC-58" value="Posee" style="shape=rhombus;perimeter=rhombusPerimeter;whiteSpace=wrap;html=1;align=center;" parent="1" vertex="1">
          <mxGeometry x="-130" y="165" width="120" height="60" as="geometry" />
        </mxCell>
        <mxCell id="qp_JkodCqPg50iR1KAxC-64" value="Tipo" style="html=1;whiteSpace=wrap;" parent="1" vertex="1">
          <mxGeometry x="1256" y="25" width="110" height="50" as="geometry" />
        </mxCell>
        <mxCell id="qp_JkodCqPg50iR1KAxC-67" style="edgeStyle=orthogonalEdgeStyle;rounded=0;orthogonalLoop=1;jettySize=auto;html=1;endArrow=none;endFill=0;" parent="1" source="qp_JkodCqPg50iR1KAxC-65" target="qp_JkodCqPg50iR1KAxC-64" edge="1">
          <mxGeometry relative="1" as="geometry" />
        </mxCell>
        <mxCell id="qp_JkodCqPg50iR1KAxC-65" value="Pertenece a" style="shape=rhombus;perimeter=rhombusPerimeter;whiteSpace=wrap;html=1;align=center;" parent="1" vertex="1">
          <mxGeometry x="1086" y="20" width="120" height="60" as="geometry" />
        </mxCell>
        <mxCell id="qp_JkodCqPg50iR1KAxC-68" value="1:N" style="text;html=1;align=center;verticalAlign=middle;whiteSpace=wrap;rounded=0;" parent="1" vertex="1">
          <mxGeometry x="96" y="-125" width="30" height="30" as="geometry" />
        </mxCell>
        <mxCell id="qp_JkodCqPg50iR1KAxC-69" value="N:M" style="text;html=1;align=center;verticalAlign=middle;whiteSpace=wrap;rounded=0;" parent="1" vertex="1">
          <mxGeometry x="176" y="-160" width="30" height="30" as="geometry" />
        </mxCell>
        <mxCell id="qp_JkodCqPg50iR1KAxC-70" value="1:N" style="text;html=1;align=center;verticalAlign=middle;whiteSpace=wrap;rounded=0;" parent="1" vertex="1">
          <mxGeometry x="271" y="-125" width="30" height="30" as="geometry" />
        </mxCell>
        <mxCell id="qp_JkodCqPg50iR1KAxC-71" value="&lt;div&gt;1:N&lt;/div&gt;" style="text;html=1;align=center;verticalAlign=middle;whiteSpace=wrap;rounded=0;" parent="1" vertex="1">
          <mxGeometry x="411" y="-125" width="30" height="30" as="geometry" />
        </mxCell>
        <mxCell id="qp_JkodCqPg50iR1KAxC-72" value="1:N" style="text;html=1;align=center;verticalAlign=middle;whiteSpace=wrap;rounded=0;" parent="1" vertex="1">
          <mxGeometry x="591" y="-125" width="30" height="30" as="geometry" />
        </mxCell>
        <mxCell id="qp_JkodCqPg50iR1KAxC-73" value="N:M" style="text;html=1;align=center;verticalAlign=middle;whiteSpace=wrap;rounded=0;" parent="1" vertex="1">
          <mxGeometry x="506" y="-160" width="30" height="30" as="geometry" />
        </mxCell>
        <mxCell id="qp_JkodCqPg50iR1KAxC-74" value="1:1" style="text;html=1;align=center;verticalAlign=middle;whiteSpace=wrap;rounded=0;" parent="1" vertex="1">
          <mxGeometry x="110" y="220" width="30" height="30" as="geometry" />
        </mxCell>
        <mxCell id="qp_JkodCqPg50iR1KAxC-75" value="1:N" style="text;html=1;align=center;verticalAlign=middle;whiteSpace=wrap;rounded=0;" parent="1" vertex="1">
          <mxGeometry x="66" y="450" width="30" height="30" as="geometry" />
        </mxCell>
        <mxCell id="qp_JkodCqPg50iR1KAxC-76" value="1:N" style="text;html=1;align=center;verticalAlign=middle;whiteSpace=wrap;rounded=0;" parent="1" vertex="1">
          <mxGeometry x="226" y="345" width="30" height="30" as="geometry" />
        </mxCell>
        <mxCell id="qp_JkodCqPg50iR1KAxC-77" value="1:N" style="text;html=1;align=center;verticalAlign=middle;whiteSpace=wrap;rounded=0;" parent="1" vertex="1">
          <mxGeometry x="160" y="480" width="30" height="30" as="geometry" />
        </mxCell>
        <mxCell id="qp_JkodCqPg50iR1KAxC-78" value="1:N" style="text;html=1;align=center;verticalAlign=middle;whiteSpace=wrap;rounded=0;" parent="1" vertex="1">
          <mxGeometry x="430" y="480" width="30" height="30" as="geometry" />
        </mxCell>
        <mxCell id="qp_JkodCqPg50iR1KAxC-79" value="N:M" style="text;html=1;align=center;verticalAlign=middle;whiteSpace=wrap;rounded=0;" parent="1" vertex="1">
          <mxGeometry x="295" y="445" width="30" height="30" as="geometry" />
        </mxCell>
        <mxCell id="qp_JkodCqPg50iR1KAxC-80" value="1:1" style="text;html=1;align=center;verticalAlign=middle;whiteSpace=wrap;rounded=0;" parent="1" vertex="1">
          <mxGeometry x="-215" y="480" width="30" height="30" as="geometry" />
        </mxCell>
        <mxCell id="qp_JkodCqPg50iR1KAxC-81" value="1:N" style="text;html=1;align=center;verticalAlign=middle;whiteSpace=wrap;rounded=0;" parent="1" vertex="1">
          <mxGeometry x="20" y="480" width="30" height="30" as="geometry" />
        </mxCell>
        <mxCell id="qp_JkodCqPg50iR1KAxC-82" value="1:N" style="text;html=1;align=center;verticalAlign=middle;whiteSpace=wrap;rounded=0;" parent="1" vertex="1">
          <mxGeometry x="-105" y="445" width="30" height="30" as="geometry" />
        </mxCell>
        <mxCell id="qp_JkodCqPg50iR1KAxC-83" value="1:1" style="text;html=1;align=center;verticalAlign=middle;whiteSpace=wrap;rounded=0;" parent="1" vertex="1">
          <mxGeometry x="-270" y="220" width="30" height="30" as="geometry" />
        </mxCell>
        <mxCell id="qp_JkodCqPg50iR1KAxC-86" value="1:N" style="text;html=1;align=center;verticalAlign=middle;whiteSpace=wrap;rounded=0;" parent="1" vertex="1">
          <mxGeometry x="-270" y="450" width="30" height="30" as="geometry" />
        </mxCell>
        <mxCell id="qp_JkodCqPg50iR1KAxC-87" value="." style="text;html=1;align=center;verticalAlign=middle;whiteSpace=wrap;rounded=0;" parent="1" vertex="1">
          <mxGeometry x="-355" y="165" width="30" height="30" as="geometry" />
        </mxCell>
        <mxCell id="ASEv6_CXKGMXaSiqvc_h-3" style="edgeStyle=orthogonalEdgeStyle;rounded=0;orthogonalLoop=1;jettySize=auto;html=1;endArrow=none;endFill=0;" parent="1" source="ASEv6_CXKGMXaSiqvc_h-1" target="j4JtsabxoQDrfAaerwHx-1" edge="1">
          <mxGeometry relative="1" as="geometry">
            <Array as="points">
              <mxPoint x="520" y="405" />
            </Array>
          </mxGeometry>
        </mxCell>
        <mxCell id="ASEv6_CXKGMXaSiqvc_h-1" value="Realiza" style="shape=rhombus;perimeter=rhombusPerimeter;whiteSpace=wrap;html=1;align=center;" parent="1" vertex="1">
          <mxGeometry x="425" y="265" width="120" height="60" as="geometry" />
        </mxCell>
        <mxCell id="dpnFt4Pwqag7pacFZpll-1" value="1:N" style="text;html=1;align=center;verticalAlign=middle;whiteSpace=wrap;rounded=0;" parent="1" vertex="1">
          <mxGeometry x="-210" y="310" width="30" height="30" as="geometry" />
        </mxCell>
        <mxCell id="dpnFt4Pwqag7pacFZpll-2" value="1:1" style="text;html=1;align=center;verticalAlign=middle;whiteSpace=wrap;rounded=0;" parent="1" vertex="1">
          <mxGeometry x="-550" y="165" width="30" height="30" as="geometry" />
        </mxCell>
        <mxCell id="dpnFt4Pwqag7pacFZpll-3" value="1:N" style="text;html=1;align=center;verticalAlign=middle;whiteSpace=wrap;rounded=0;" parent="1" vertex="1">
          <mxGeometry x="-360" y="170" width="30" height="30" as="geometry" />
        </mxCell>
        <mxCell id="dpnFt4Pwqag7pacFZpll-4" value="1:N" style="text;html=1;align=center;verticalAlign=middle;whiteSpace=wrap;rounded=0;" parent="1" vertex="1">
          <mxGeometry x="-455" y="135" width="30" height="30" as="geometry" />
        </mxCell>
        <mxCell id="dpnFt4Pwqag7pacFZpll-5" value="1:N" style="text;html=1;align=center;verticalAlign=middle;whiteSpace=wrap;rounded=0;" parent="1" vertex="1">
          <mxGeometry x="-600" y="220" width="30" height="30" as="geometry" />
        </mxCell>
        <mxCell id="dpnFt4Pwqag7pacFZpll-6" value="1:1" style="text;html=1;align=center;verticalAlign=middle;whiteSpace=wrap;rounded=0;" parent="1" vertex="1">
          <mxGeometry x="-600" y="410" width="30" height="30" as="geometry" />
        </mxCell>
        <mxCell id="dpnFt4Pwqag7pacFZpll-9" value="1:N" style="text;html=1;align=center;verticalAlign=middle;whiteSpace=wrap;rounded=0;" parent="1" vertex="1">
          <mxGeometry x="-545" y="310" width="30" height="30" as="geometry" />
        </mxCell>
        <mxCell id="dpnFt4Pwqag7pacFZpll-10" value="1:N" style="text;html=1;align=center;verticalAlign=middle;whiteSpace=wrap;rounded=0;" parent="1" vertex="1">
          <mxGeometry x="-215" y="165" width="30" height="30" as="geometry" />
        </mxCell>
        <mxCell id="dpnFt4Pwqag7pacFZpll-11" value="1:1" style="text;html=1;align=center;verticalAlign=middle;whiteSpace=wrap;rounded=0;" parent="1" vertex="1">
          <mxGeometry x="15" y="165" width="30" height="30" as="geometry" />
        </mxCell>
        <mxCell id="dpnFt4Pwqag7pacFZpll-12" value="1:N" style="text;html=1;align=center;verticalAlign=middle;whiteSpace=wrap;rounded=0;" parent="1" vertex="1">
          <mxGeometry x="-85" y="135" width="30" height="30" as="geometry" />
        </mxCell>
        <mxCell id="dpnFt4Pwqag7pacFZpll-13" value="1:1" style="text;html=1;align=center;verticalAlign=middle;whiteSpace=wrap;rounded=0;" parent="1" vertex="1">
          <mxGeometry x="-260" y="25" width="30" height="30" as="geometry" />
        </mxCell>
        <mxCell id="dpnFt4Pwqag7pacFZpll-14" value="1:N" style="text;html=1;align=center;verticalAlign=middle;whiteSpace=wrap;rounded=0;" parent="1" vertex="1">
          <mxGeometry x="30" y="25" width="30" height="30" as="geometry" />
        </mxCell>
        <mxCell id="dpnFt4Pwqag7pacFZpll-15" value="1:N" style="text;html=1;align=center;verticalAlign=middle;whiteSpace=wrap;rounded=0;" parent="1" vertex="1">
          <mxGeometry x="-140" y="-5" width="30" height="30" as="geometry" />
        </mxCell>
        <mxCell id="dpnFt4Pwqag7pacFZpll-18" value="" style="edgeStyle=orthogonalEdgeStyle;rounded=0;orthogonalLoop=1;jettySize=auto;html=1;endArrow=none;endFill=0;" parent="1" source="qp_JkodCqPg50iR1KAxC-36" target="dpnFt4Pwqag7pacFZpll-17" edge="1">
          <mxGeometry relative="1" as="geometry">
            <mxPoint x="540" y="195" as="sourcePoint" />
            <mxPoint x="640" y="80" as="targetPoint" />
          </mxGeometry>
        </mxCell>
        <mxCell id="dpnFt4Pwqag7pacFZpll-28" style="edgeStyle=orthogonalEdgeStyle;rounded=0;orthogonalLoop=1;jettySize=auto;html=1;endArrow=none;endFill=0;" parent="1" source="dpnFt4Pwqag7pacFZpll-17" target="dpnFt4Pwqag7pacFZpll-27" edge="1">
          <mxGeometry relative="1" as="geometry" />
        </mxCell>
        <mxCell id="dpnFt4Pwqag7pacFZpll-17" value="Tiene" style="shape=rhombus;perimeter=rhombusPerimeter;whiteSpace=wrap;html=1;align=center;" parent="1" vertex="1">
          <mxGeometry x="711" y="165" width="120" height="60" as="geometry" />
        </mxCell>
        <mxCell id="dpnFt4Pwqag7pacFZpll-29" value="" style="edgeStyle=orthogonalEdgeStyle;rounded=0;orthogonalLoop=1;jettySize=auto;html=1;endArrow=none;endFill=0;" parent="1" source="dpnFt4Pwqag7pacFZpll-17" target="dpnFt4Pwqag7pacFZpll-27" edge="1">
          <mxGeometry relative="1" as="geometry">
            <mxPoint x="740" y="195" as="sourcePoint" />
            <mxPoint x="835" y="315" as="targetPoint" />
          </mxGeometry>
        </mxCell>
        <mxCell id="dpnFt4Pwqag7pacFZpll-27" value="&lt;div&gt;Servicio&lt;/div&gt;" style="html=1;whiteSpace=wrap;" parent="1" vertex="1">
          <mxGeometry x="896" y="170" width="110" height="50" as="geometry" />
        </mxCell>
        <mxCell id="dpnFt4Pwqag7pacFZpll-31" value="1:N" style="text;html=1;align=center;verticalAlign=middle;whiteSpace=wrap;rounded=0;" parent="1" vertex="1">
          <mxGeometry x="540" y="140" width="30" height="30" as="geometry" />
        </mxCell>
        <mxCell id="dpnFt4Pwqag7pacFZpll-32" value="1:N" style="text;html=1;align=center;verticalAlign=middle;whiteSpace=wrap;rounded=0;" parent="1" vertex="1">
          <mxGeometry x="866" y="20" width="30" height="30" as="geometry" />
        </mxCell>
        <mxCell id="dpnFt4Pwqag7pacFZpll-33" value="1:N" style="text;html=1;align=center;verticalAlign=middle;whiteSpace=wrap;rounded=0;" parent="1" vertex="1">
          <mxGeometry x="866" y="165" width="30" height="30" as="geometry" />
        </mxCell>
        <mxCell id="dpnFt4Pwqag7pacFZpll-34" value="1:N" style="text;html=1;align=center;verticalAlign=middle;whiteSpace=wrap;rounded=0;" parent="1" vertex="1">
          <mxGeometry x="866" y="305" width="30" height="30" as="geometry" />
        </mxCell>
        <mxCell id="dpnFt4Pwqag7pacFZpll-35" value="N:M" style="text;html=1;align=center;verticalAlign=middle;whiteSpace=wrap;rounded=0;" parent="1" vertex="1">
          <mxGeometry x="756" y="135" width="30" height="30" as="geometry" />
        </mxCell>
        <mxCell id="dpnFt4Pwqag7pacFZpll-36" value="1:N" style="text;html=1;align=center;verticalAlign=middle;whiteSpace=wrap;rounded=0;" parent="1" vertex="1">
          <mxGeometry x="1006" y="25" width="30" height="30" as="geometry" />
        </mxCell>
        <mxCell id="dpnFt4Pwqag7pacFZpll-37" value="1:1" style="text;html=1;align=center;verticalAlign=middle;whiteSpace=wrap;rounded=0;" parent="1" vertex="1">
          <mxGeometry x="1226" y="20" width="30" height="30" as="geometry" />
        </mxCell>
        <mxCell id="dpnFt4Pwqag7pacFZpll-38" value="1:N" style="text;html=1;align=center;verticalAlign=middle;whiteSpace=wrap;rounded=0;" parent="1" vertex="1">
          <mxGeometry x="1131" y="-10" width="30" height="30" as="geometry" />
        </mxCell>
        <mxCell id="dpnFt4Pwqag7pacFZpll-39" value="1:1" style="text;html=1;align=center;verticalAlign=middle;whiteSpace=wrap;rounded=0;" parent="1" vertex="1">
          <mxGeometry x="399" y="380" width="30" height="30" as="geometry" />
        </mxCell>
        <mxCell id="dpnFt4Pwqag7pacFZpll-40" value="1:N" style="text;html=1;align=center;verticalAlign=middle;whiteSpace=wrap;rounded=0;" parent="1" vertex="1">
          <mxGeometry x="490" y="220" width="30" height="30" as="geometry" />
        </mxCell>
        <mxCell id="dpnFt4Pwqag7pacFZpll-41" value="1:1" style="text;html=1;align=center;verticalAlign=middle;whiteSpace=wrap;rounded=0;" parent="1" vertex="1">
          <mxGeometry x="490" y="350" width="30" height="30" as="geometry" />
        </mxCell>
        <mxCell id="dpnFt4Pwqag7pacFZpll-42" value="1:1" style="text;html=1;align=center;verticalAlign=middle;whiteSpace=wrap;rounded=0;" parent="1" vertex="1">
          <mxGeometry x="160" y="165" width="30" height="30" as="geometry" />
        </mxCell>
        <mxCell id="dpnFt4Pwqag7pacFZpll-43" value="1:N" style="text;html=1;align=center;verticalAlign=middle;whiteSpace=wrap;rounded=0;" parent="1" vertex="1">
          <mxGeometry x="400" y="165" width="30" height="30" as="geometry" />
        </mxCell>
        <mxCell id="dpnFt4Pwqag7pacFZpll-48" style="edgeStyle=orthogonalEdgeStyle;rounded=0;orthogonalLoop=1;jettySize=auto;html=1;endArrow=none;endFill=0;" parent="1" source="dpnFt4Pwqag7pacFZpll-46" target="qp_JkodCqPg50iR1KAxC-39" edge="1">
          <mxGeometry relative="1" as="geometry" />
        </mxCell>
        <mxCell id="dpnFt4Pwqag7pacFZpll-46" value="Detalla" style="shape=rhombus;perimeter=rhombusPerimeter;whiteSpace=wrap;html=1;align=center;" parent="1" vertex="1">
          <mxGeometry x="775" y="475" width="120" height="60" as="geometry" />
        </mxCell>
        <mxCell id="dpnFt4Pwqag7pacFZpll-49" value="1:1" style="text;html=1;align=center;verticalAlign=middle;whiteSpace=wrap;rounded=0;" parent="1" vertex="1">
          <mxGeometry x="570" y="475" width="30" height="30" as="geometry" />
        </mxCell>
        <mxCell id="dpnFt4Pwqag7pacFZpll-50" value="1:1" style="text;html=1;align=center;verticalAlign=middle;whiteSpace=wrap;rounded=0;" parent="1" vertex="1">
          <mxGeometry x="916" y="360" width="30" height="30" as="geometry" />
        </mxCell>
        <mxCell id="dpnFt4Pwqag7pacFZpll-51" value="1:1" style="text;html=1;align=center;verticalAlign=middle;whiteSpace=wrap;rounded=0;" parent="1" vertex="1">
          <mxGeometry x="820" y="535" width="30" height="30" as="geometry" />
        </mxCell>
        <mxCell id="dpnFt4Pwqag7pacFZpll-52" value="1:N" style="text;html=1;align=center;verticalAlign=middle;whiteSpace=wrap;rounded=0;" parent="1" vertex="1">
          <mxGeometry x="271" y="135" width="30" height="30" as="geometry" />
        </mxCell>
        <mxCell id="j4JtsabxoQDrfAaerwHx-1" value="empleado" style="html=1;whiteSpace=wrap;" vertex="1" parent="1">
          <mxGeometry x="430" y="380" width="110" height="50" as="geometry" />
        </mxCell>
        <mxCell id="j4JtsabxoQDrfAaerwHx-5" style="edgeStyle=orthogonalEdgeStyle;rounded=0;orthogonalLoop=1;jettySize=auto;html=1;endArrow=none;endFill=0;" edge="1" parent="1" source="j4JtsabxoQDrfAaerwHx-3" target="qp_JkodCqPg50iR1KAxC-36">
          <mxGeometry relative="1" as="geometry">
            <Array as="points">
              <mxPoint x="610" y="335" />
              <mxPoint x="610" y="220" />
            </Array>
          </mxGeometry>
        </mxCell>
        <mxCell id="j4JtsabxoQDrfAaerwHx-3" value="Tiene" style="shape=rhombus;perimeter=rhombusPerimeter;whiteSpace=wrap;html=1;align=center;" vertex="1" parent="1">
          <mxGeometry x="711" y="305" width="120" height="60" as="geometry" />
        </mxCell>
        <mxCell id="j4JtsabxoQDrfAaerwHx-8" style="edgeStyle=orthogonalEdgeStyle;rounded=0;orthogonalLoop=1;jettySize=auto;html=1;endArrow=none;endFill=0;" edge="1" parent="1" source="j4JtsabxoQDrfAaerwHx-4" target="qp_JkodCqPg50iR1KAxC-36">
          <mxGeometry relative="1" as="geometry">
            <Array as="points">
              <mxPoint x="610" y="50" />
              <mxPoint x="610" y="170" />
            </Array>
          </mxGeometry>
        </mxCell>
        <mxCell id="j4JtsabxoQDrfAaerwHx-4" value="Tiene" style="shape=rhombus;perimeter=rhombusPerimeter;whiteSpace=wrap;html=1;align=center;" vertex="1" parent="1">
          <mxGeometry x="711" y="20" width="120" height="60" as="geometry" />
        </mxCell>
        <mxCell id="j4JtsabxoQDrfAaerwHx-9" value="N:M" style="text;html=1;align=center;verticalAlign=middle;whiteSpace=wrap;rounded=0;" vertex="1" parent="1">
          <mxGeometry x="756" y="-10" width="30" height="30" as="geometry" />
        </mxCell>
        <mxCell id="j4JtsabxoQDrfAaerwHx-10" value="N:M" style="text;html=1;align=center;verticalAlign=middle;whiteSpace=wrap;rounded=0;" vertex="1" parent="1">
          <mxGeometry x="756" y="275" width="30" height="30" as="geometry" />
        </mxCell>
        <mxCell id="j4JtsabxoQDrfAaerwHx-15" value="1:N" style="text;html=1;align=center;verticalAlign=middle;whiteSpace=wrap;rounded=0;" vertex="1" parent="1">
          <mxGeometry x="545" y="280" width="30" height="30" as="geometry" />
        </mxCell>
        <mxCell id="j4JtsabxoQDrfAaerwHx-16" value="1:N" style="text;html=1;align=center;verticalAlign=middle;whiteSpace=wrap;rounded=0;" vertex="1" parent="1">
          <mxGeometry x="540" y="195" width="30" height="30" as="geometry" />
        </mxCell>
        <mxCell id="j4JtsabxoQDrfAaerwHx-17" value="1:N" style="text;html=1;align=center;verticalAlign=middle;whiteSpace=wrap;rounded=0;" vertex="1" parent="1">
          <mxGeometry x="540" y="170" width="30" height="30" as="geometry" />
        </mxCell>
      </root>
    </mxGraphModel>
  </diagram>
</mxfile>
